<svg width="26" height="26" viewBox="0 0 26 26" fill="none" xmlns="http://www.w3.org/2000/svg">
<path fill-rule="evenodd" clip-rule="evenodd" d="M13 4.0625C8.06395 4.0625 4.0625 8.06395 4.0625 13C4.0625 17.936 8.06396 21.9375 13 21.9375C17.936 21.9375 21.9375 17.936 21.9375 13C21.9375 8.06395 17.936 4.0625 13 4.0625ZM2.4375 13C2.4375 7.16649 7.16649 2.4375 13 2.4375C18.8335 2.4375 23.5625 7.16649 23.5625 13C23.5625 18.8335 18.8335 23.5625 13 23.5625C7.16649 23.5625 2.4375 18.8335 2.4375 13Z" fill="#F75A68"/>
<path fill-rule="evenodd" clip-rule="evenodd" d="M8.98248 13.045C9.29978 12.7277 9.81423 12.7277 10.1315 13.045L13 15.9134L15.8684 13.045C16.1857 12.7277 16.7002 12.7277 17.0175 13.045C17.3348 13.3623 17.3348 13.8767 17.0175 14.194L13.5745 17.637C13.2572 17.9543 12.7428 17.9543 12.4255 17.637L8.98248 14.194C8.66518 13.8767 8.66518 13.3623 8.98248 13.045Z" fill="#F75A68"/>
<path fill-rule="evenodd" clip-rule="evenodd" d="M13 8.125C13.4487 8.125 13.8125 8.48877 13.8125 8.9375L13.8125 17.0625C13.8125 17.5112 13.4487 17.875 13 17.875C12.5513 17.875 12.1875 17.5112 12.1875 17.0625L12.1875 8.9375C12.1875 8.48877 12.5513 8.125 13 8.125Z" fill="#F75A68"/>
</svg>
