<svg width="21" height="21" viewBox="0 0 21 21" fill="none" xmlns="http://www.w3.org/2000/svg">
<path d="M10.4833 19.8745C5.90564 19.8745 2.18408 16.153 2.18408 11.5753C2.18408 6.99756 5.90564 3.276 10.4833 3.276C15.061 3.276 18.7826 6.99756 18.7826 11.5753C18.7826 16.153 15.061 19.8745 10.4833 19.8745ZM10.4833 4.58641C6.63074 4.58641 3.49449 7.72266 3.49449 11.5753C3.49449 15.4279 6.63074 18.5641 10.4833 18.5641C14.3359 18.5641 17.4722 15.4279 17.4722 11.5753C17.4722 7.72266 14.3359 4.58641 10.4833 4.58641Z" fill="#616161"/>
<path d="M10.4833 12.0121C10.1252 12.0121 9.82812 11.715 9.82812 11.3569V6.98882C9.82812 6.63064 10.1252 6.33362 10.4833 6.33362C10.8415 6.33362 11.1385 6.63064 11.1385 6.98882V11.3569C11.1385 11.715 10.8415 12.0121 10.4833 12.0121Z" fill="#616161"/>
<path d="M13.1044 2.40245H7.86272C7.50455 2.40245 7.20752 2.10542 7.20752 1.74725C7.20752 1.38907 7.50455 1.09204 7.86272 1.09204H13.1044C13.4625 1.09204 13.7596 1.38907 13.7596 1.74725C13.7596 2.10542 13.4625 2.40245 13.1044 2.40245Z" fill="#616161"/>
</svg>
