<svg width="28" height="28" viewBox="0 0 28 28" fill="none" xmlns="http://www.w3.org/2000/svg">
<path d="M4.49165 10.0567C4.32136 9.28963 4.34751 8.49199 4.56766 7.73774C4.78782 6.98349 5.19485 6.29703 5.75103 5.74202C6.3072 5.18701 6.99451 4.78141 7.74922 4.56284C8.50394 4.34426 9.30162 4.31979 10.0683 4.49168C10.4903 3.8317 11.0717 3.28856 11.7588 2.91235C12.4459 2.53613 13.2166 2.33893 14 2.33893C14.7833 2.33893 15.5541 2.53613 16.2412 2.91235C16.9283 3.28856 17.5097 3.8317 17.9316 4.49168C18.6995 4.31904 19.4986 4.34341 20.2545 4.56251C21.0104 4.78162 21.6986 5.18834 22.2551 5.74486C22.8116 6.30137 23.2184 6.9896 23.4375 7.74551C23.6566 8.50143 23.681 9.30048 23.5083 10.0683C24.1683 10.4903 24.7114 11.0717 25.0876 11.7588C25.4639 12.4459 25.6611 13.2167 25.6611 14C25.6611 14.7834 25.4639 15.5541 25.0876 16.2412C24.7114 16.9283 24.1683 17.5097 23.5083 17.9317C23.6802 18.6984 23.6557 19.4961 23.4372 20.2508C23.2186 21.0055 22.813 21.6928 22.258 22.249C21.703 22.8051 21.0165 23.2122 20.2623 23.4323C19.508 23.6525 18.7104 23.6786 17.9433 23.5083C17.5219 24.1709 16.9401 24.7163 16.2518 25.0942C15.5635 25.4721 14.791 25.6702 14.0058 25.6702C13.2206 25.6702 12.4481 25.4721 11.7598 25.0942C11.0716 24.7163 10.4898 24.1709 10.0683 23.5083C9.30162 23.6802 8.50394 23.6558 7.74922 23.4372C6.99451 23.2186 6.3072 22.813 5.75103 22.258C5.19485 21.703 4.78782 21.0165 4.56766 20.2623C4.34751 19.508 4.32136 18.7104 4.49165 17.9433C3.8266 17.5225 3.2788 16.9402 2.8992 16.2508C2.51961 15.5613 2.32056 14.7871 2.32056 14C2.32056 13.213 2.51961 12.4387 2.8992 11.7493C3.2788 11.0598 3.8266 10.4776 4.49165 10.0567Z" stroke="#006414" stroke-width="2" stroke-linecap="round" stroke-linejoin="round"/>
<path d="M10.5 14L12.8333 16.3333L17.5 11.6667" stroke="#006414" stroke-width="2" stroke-linecap="round" stroke-linejoin="round"/>
</svg>
