<svg width="14" height="10" viewBox="0 0 14 10" fill="none" xmlns="http://www.w3.org/2000/svg">
<path fill-rule="evenodd" clip-rule="evenodd" d="M10.2294 2.08361e-05C10.3957 -0.00105607 10.5596 0.0396277 10.7061 0.118363C10.8524 0.19694 10.9766 0.310891 11.0674 0.449791L13.916 4.72267C14.028 4.89062 14.028 5.10942 13.916 5.27737L11.0674 9.55026C10.9766 9.68915 10.8524 9.8031 10.7061 9.88168C10.5596 9.96042 10.3957 10.0011 10.2293 10H1C0.734784 10 0.48043 9.89466 0.292893 9.70713C0.105357 9.51959 0 9.26524 0 9.00002V1.00002C0 0.734804 0.105357 0.48045 0.292893 0.292914C0.480429 0.105378 0.734783 2.08361e-05 1 2.08361e-05H10.2294ZM10.65 9.27502L10.234 8.99767L12.8991 5.00002L10.2324 1.00003L10.2312 1.00004L1 1.00002L1 9.00002H10.2358C10.2351 9.00001 10.2343 9.00017 10.2336 9.00045C10.2333 9.00054 10.2331 9.00066 10.2328 9.00079C10.2322 9.0011 10.2317 9.00151 10.2312 9.00199C10.231 9.00227 10.2308 9.00257 10.2305 9.00289L10.65 9.27502Z" fill="#7C7C8A"/>
</svg>
