<svg width="26" height="26" viewBox="0 0 26 26" fill="none" xmlns="http://www.w3.org/2000/svg">
<path fill-rule="evenodd" clip-rule="evenodd" d="M13 4.0625C8.06395 4.0625 4.0625 8.06395 4.0625 13C4.0625 17.936 8.06396 21.9375 13 21.9375C17.936 21.9375 21.9375 17.936 21.9375 13C21.9375 8.06395 17.936 4.0625 13 4.0625ZM2.4375 13C2.4375 7.16649 7.16649 2.4375 13 2.4375C18.8335 2.4375 23.5625 7.16649 23.5625 13C23.5625 18.8335 18.8335 23.5625 13 23.5625C7.16649 23.5625 2.4375 18.8335 2.4375 13Z" fill="#00B37E"/>
<path fill-rule="evenodd" clip-rule="evenodd" d="M13 8.125C13.2155 8.125 13.4221 8.2106 13.5745 8.36298L17.0175 11.8059C17.3348 12.1232 17.3348 12.6377 17.0175 12.955C16.7002 13.2723 16.1857 13.2723 15.8684 12.955L13 10.0865L10.1315 12.955C9.81423 13.2723 9.29978 13.2723 8.98248 12.955C8.66518 12.6377 8.66518 12.1232 8.98248 11.8059L12.4255 8.36298C12.5778 8.2106 12.7845 8.125 13 8.125Z" fill="#00B37E"/>
<path fill-rule="evenodd" clip-rule="evenodd" d="M13 8.125C13.4487 8.125 13.8125 8.48877 13.8125 8.9375L13.8125 17.0625C13.8125 17.5112 13.4487 17.875 13 17.875C12.5513 17.875 12.1875 17.5112 12.1875 17.0625L12.1875 8.9375C12.1875 8.48877 12.5513 8.125 13 8.125Z" fill="#00B37E"/>
</svg>
