<svg width="24" height="24" viewBox="0 0 24 24" fill="none" xmlns="http://www.w3.org/2000/svg">
<path d="M12.25 12.9243V7.78537M12.25 16.0076H12.2603M21.5 11.8965C21.5 13.1112 21.2607 14.314 20.7959 15.4363C20.331 16.5586 19.6497 17.5783 18.7907 18.4372C17.9318 19.2962 16.9121 19.9775 15.7898 20.4424C14.6676 20.9072 13.4647 21.1465 12.25 21.1465C11.0353 21.1465 9.83244 20.9072 8.71018 20.4424C7.58792 19.9775 6.5682 19.2962 5.70926 18.4372C4.85032 17.5783 4.16897 16.5586 3.70411 15.4363C3.23926 14.314 3 13.1112 3 11.8965C3 9.44323 3.97455 7.09046 5.70926 5.35575C7.44397 3.62104 9.79675 2.64648 12.25 2.64648C14.7033 2.64648 17.056 3.62104 18.7907 5.35575C20.5254 7.09046 21.5 9.44323 21.5 11.8965Z" stroke="#E4CB31" stroke-width="2" stroke-linecap="round" stroke-linejoin="round"/>
</svg>
